<mxfile host="app.diagrams.net" agent="Mozilla/5.0 (Macintosh; Intel Mac OS X 10_15_7) AppleWebKit/537.36 (KHTML, like Gecko) Chrome/138.0.0.0 Safari/537.36" version="28.0.4">
  <diagram name="Page-1" id="JMiJDW7goolvFvnR_LRG">
    <mxGraphModel dx="1901" dy="1213" grid="1" gridSize="10" guides="1" tooltips="1" connect="1" arrows="1" fold="1" page="1" pageScale="1" pageWidth="850" pageHeight="1100" math="0" shadow="0">
      <root>
        <mxCell id="0" />
        <mxCell id="1" parent="0" />
        <mxCell id="w2oSPfSdLmp6zHzQ9DWl-1" value="" style="whiteSpace=wrap;html=1;aspect=fixed;fillColor=#0050ef;fontColor=#ffffff;strokeColor=#001DBC;" vertex="1" parent="1">
          <mxGeometry x="80" y="160" width="560" height="560" as="geometry" />
        </mxCell>
        <mxCell id="w2oSPfSdLmp6zHzQ9DWl-6" value="" style="group" vertex="1" connectable="0" parent="1">
          <mxGeometry x="320" y="200" width="80" height="80" as="geometry" />
        </mxCell>
        <mxCell id="w2oSPfSdLmp6zHzQ9DWl-2" value="" style="whiteSpace=wrap;html=1;aspect=fixed;fillColor=light-dark(#F0A30A,#FFFFFF);fontColor=#000000;strokeColor=#BD7000;" vertex="1" parent="w2oSPfSdLmp6zHzQ9DWl-6">
          <mxGeometry width="80" height="80" as="geometry" />
        </mxCell>
        <mxCell id="w2oSPfSdLmp6zHzQ9DWl-4" value="Homepage" style="text;html=1;align=center;verticalAlign=middle;whiteSpace=wrap;rounded=0;fillColor=none;fontColor=light-dark(#000000,#000000);" vertex="1" parent="w2oSPfSdLmp6zHzQ9DWl-6">
          <mxGeometry x="10" y="48.5" width="60" height="30" as="geometry" />
        </mxCell>
        <mxCell id="w2oSPfSdLmp6zHzQ9DWl-5" value="" style="image;aspect=fixed;perimeter=ellipsePerimeter;html=1;align=center;shadow=0;dashed=0;spacingTop=3;image=img/lib/active_directory/home.svg;" vertex="1" parent="w2oSPfSdLmp6zHzQ9DWl-6">
          <mxGeometry x="15" y="10" width="50" height="48.5" as="geometry" />
        </mxCell>
        <mxCell id="w2oSPfSdLmp6zHzQ9DWl-11" value="" style="group" vertex="1" connectable="0" parent="1">
          <mxGeometry x="105" y="344" width="510" height="60" as="geometry" />
        </mxCell>
        <mxCell id="w2oSPfSdLmp6zHzQ9DWl-8" value="&lt;font style=&quot;color: light-dark(rgb(0, 0, 0), rgb(0, 0, 0));&quot;&gt;Navigation Bar&lt;/font&gt;" style="rounded=0;whiteSpace=wrap;html=1;fillColor=light-dark(#FFFFFF,#FFFFFF);" vertex="1" parent="w2oSPfSdLmp6zHzQ9DWl-11">
          <mxGeometry x="21.702127659574465" width="477.4468085106383" height="60" as="geometry" />
        </mxCell>
        <mxCell id="w2oSPfSdLmp6zHzQ9DWl-10" value="" style="shape=image;html=1;verticalAlign=top;verticalLabelPosition=bottom;labelBackgroundColor=#ffffff;imageAspect=0;aspect=fixed;image=https://icons.diagrams.net/icon-cache1/bitsies_-2960/Application-1398.svg" vertex="1" parent="w2oSPfSdLmp6zHzQ9DWl-11">
          <mxGeometry x="45.00106382978723" y="11" width="38" height="38" as="geometry" />
        </mxCell>
        <mxCell id="w2oSPfSdLmp6zHzQ9DWl-13" style="edgeStyle=none;curved=0;rounded=0;orthogonalLoop=1;jettySize=auto;html=1;exitX=0.5;exitY=1;exitDx=0;exitDy=0;entryX=0.485;entryY=0.067;entryDx=0;entryDy=0;entryPerimeter=0;fontSize=12;startSize=8;endSize=8;" edge="1" parent="1" source="w2oSPfSdLmp6zHzQ9DWl-4" target="w2oSPfSdLmp6zHzQ9DWl-8">
          <mxGeometry relative="1" as="geometry" />
        </mxCell>
        <mxCell id="w2oSPfSdLmp6zHzQ9DWl-14" value="" style="group" vertex="1" connectable="0" parent="1">
          <mxGeometry x="130" y="511" width="80" height="80" as="geometry" />
        </mxCell>
        <mxCell id="w2oSPfSdLmp6zHzQ9DWl-15" value="" style="whiteSpace=wrap;html=1;aspect=fixed;fillColor=light-dark(#F0A30A,#FFFFFF);fontColor=#000000;strokeColor=#BD7000;" vertex="1" parent="w2oSPfSdLmp6zHzQ9DWl-14">
          <mxGeometry width="80" height="80" as="geometry" />
        </mxCell>
        <mxCell id="w2oSPfSdLmp6zHzQ9DWl-16" value="About me" style="text;html=1;align=center;verticalAlign=middle;whiteSpace=wrap;rounded=0;fillColor=none;fontColor=light-dark(#000000,#000000);" vertex="1" parent="w2oSPfSdLmp6zHzQ9DWl-14">
          <mxGeometry x="10" y="50" width="60" height="28.5" as="geometry" />
        </mxCell>
        <mxCell id="w2oSPfSdLmp6zHzQ9DWl-19" value="" style="image;sketch=0;aspect=fixed;html=1;points=[];align=center;fontSize=12;image=img/lib/mscae/Person.svg;" vertex="1" parent="w2oSPfSdLmp6zHzQ9DWl-14">
          <mxGeometry x="25.75" y="11.49" width="28.5" height="38.51" as="geometry" />
        </mxCell>
        <mxCell id="w2oSPfSdLmp6zHzQ9DWl-23" value="" style="edgeStyle=none;curved=1;rounded=0;orthogonalLoop=1;jettySize=auto;html=1;fontSize=12;startSize=8;endSize=8;entryX=0.5;entryY=0;entryDx=0;entryDy=0;" edge="1" parent="1" source="w2oSPfSdLmp6zHzQ9DWl-8" target="w2oSPfSdLmp6zHzQ9DWl-15">
          <mxGeometry relative="1" as="geometry">
            <mxPoint x="360.8529003359462" y="500" as="targetPoint" />
          </mxGeometry>
        </mxCell>
        <mxCell id="w2oSPfSdLmp6zHzQ9DWl-25" value="" style="group" vertex="1" connectable="0" parent="1">
          <mxGeometry x="325.43" y="511" width="80" height="80" as="geometry" />
        </mxCell>
        <mxCell id="w2oSPfSdLmp6zHzQ9DWl-26" value="" style="whiteSpace=wrap;html=1;aspect=fixed;fillColor=light-dark(#F0A30A,#FFFFFF);fontColor=#000000;strokeColor=#BD7000;" vertex="1" parent="w2oSPfSdLmp6zHzQ9DWl-25">
          <mxGeometry width="80" height="80" as="geometry" />
        </mxCell>
        <mxCell id="w2oSPfSdLmp6zHzQ9DWl-27" value="Portfolio" style="text;html=1;align=center;verticalAlign=middle;whiteSpace=wrap;rounded=0;fillColor=none;fontColor=light-dark(#000000,#000000);" vertex="1" parent="w2oSPfSdLmp6zHzQ9DWl-25">
          <mxGeometry x="10" y="48.5" width="60" height="30" as="geometry" />
        </mxCell>
        <mxCell id="w2oSPfSdLmp6zHzQ9DWl-29" value="" style="verticalLabelPosition=bottom;html=1;verticalAlign=top;align=center;strokeColor=none;fillColor=#00BEF2;shape=mxgraph.azure.computer;pointerEvents=1;" vertex="1" parent="w2oSPfSdLmp6zHzQ9DWl-25">
          <mxGeometry x="20" y="10" width="40" height="38.5" as="geometry" />
        </mxCell>
        <mxCell id="w2oSPfSdLmp6zHzQ9DWl-30" value="" style="edgeStyle=none;curved=1;rounded=0;orthogonalLoop=1;jettySize=auto;html=1;fontSize=12;startSize=8;endSize=8;entryX=0.5;entryY=0;entryDx=0;entryDy=0;" edge="1" parent="1" source="w2oSPfSdLmp6zHzQ9DWl-8" target="w2oSPfSdLmp6zHzQ9DWl-32">
          <mxGeometry relative="1" as="geometry" />
        </mxCell>
        <mxCell id="w2oSPfSdLmp6zHzQ9DWl-31" value="" style="group" vertex="1" connectable="0" parent="1">
          <mxGeometry x="510" y="511" width="80" height="80" as="geometry" />
        </mxCell>
        <mxCell id="w2oSPfSdLmp6zHzQ9DWl-32" value="" style="whiteSpace=wrap;html=1;aspect=fixed;fillColor=light-dark(#F0A30A,#FFFFFF);fontColor=#000000;strokeColor=#BD7000;" vertex="1" parent="w2oSPfSdLmp6zHzQ9DWl-31">
          <mxGeometry width="80" height="80" as="geometry" />
        </mxCell>
        <mxCell id="w2oSPfSdLmp6zHzQ9DWl-33" value="Contact" style="text;html=1;align=center;verticalAlign=middle;whiteSpace=wrap;rounded=0;fillColor=none;fontColor=light-dark(#000000,#000000);" vertex="1" parent="w2oSPfSdLmp6zHzQ9DWl-31">
          <mxGeometry x="10" y="48.5" width="60" height="30" as="geometry" />
        </mxCell>
        <mxCell id="w2oSPfSdLmp6zHzQ9DWl-38" value="" style="html=1;whiteSpace=wrap;strokeColor=none;fillColor=#0079D6;labelPosition=center;verticalLabelPosition=middle;verticalAlign=top;align=center;fontSize=12;outlineConnect=0;spacingTop=-6;fontColor=#FFFFFF;sketch=0;shape=mxgraph.sitemap.contact_us;" vertex="1" parent="w2oSPfSdLmp6zHzQ9DWl-31">
          <mxGeometry x="5" y="8.5" width="70" height="40" as="geometry" />
        </mxCell>
        <mxCell id="w2oSPfSdLmp6zHzQ9DWl-37" value="" style="edgeStyle=none;curved=1;rounded=0;orthogonalLoop=1;jettySize=auto;html=1;fontSize=12;startSize=8;endSize=8;entryX=0.5;entryY=0;entryDx=0;entryDy=0;" edge="1" parent="1" target="w2oSPfSdLmp6zHzQ9DWl-26">
          <mxGeometry relative="1" as="geometry">
            <mxPoint x="360" y="370" as="sourcePoint" />
            <mxPoint x="475" y="420" as="targetPoint" />
          </mxGeometry>
        </mxCell>
      </root>
    </mxGraphModel>
  </diagram>
</mxfile>
